<?xml version="1.0" encoding="UTF-8"?>
<!DOCTYPE svg PUBLIC "-//W3C//DTD SVG 1.1//EN" "http://www.w3.org/Graphics/SVG/1.1/DTD/svg11.dtd" [
	<!ENTITY ns_svg "http://www.w3.org/2000/svg">
	<!ENTITY ns_xlink "http://www.w3.org/1999/xlink">
]>
<svg version="1.1" xmlns="http://www.w3.org/2000/svg" xmlns:xlink="http://www.w3.org/1999/xlink" width="295.375" height="124.713" viewBox="0 0 295.375 124.713" overflow="visible" enable-background="new 0 0 295.375 124.713" xml:space="preserve">
<g id="Compass" transform="translate(1.9392276,4.0277947)">
	<path fill="#4BA947" d="M52.293,113.341c-26.2-0.915-46.7-22.897-45.785-49.099c0.914-26.204,22.898-46.7,49.099-45.785   c18.112,0.633,33.497,11.335,40.969,26.537c1.15,0.036,2.302,0.039,3.461-0.175c-7.751-16.867-24.501-28.846-44.319-29.538   C27.728,14.303,4.248,36.2,3.27,64.191c-0.976,27.986,20.918,51.469,48.909,52.447c7.593,0.264,14.851-1.166,21.421-3.935   c-0.317-0.983-0.514-2.108-0.841-3.215C66.5,112.196,59.561,113.594,52.293,113.341z"/>
		<circle fill="#A0CD67" cx="53.731" cy="66.165" r="31.707">
	</circle>
	<polygon fill="#FFFFFF" stroke="#A0CD67" stroke-width="2" stroke-miterlimit="6" points="59.554,49.034 24.387,0.38 36.933,59.85    1.44,89.211 47.575,82.561 76.945,117.38 70.471,71.832 105.654,42.521  "/>
	<polygon fill="#4BA947" points="56.667,62.637 74.431,56.597 58.203,65.745 68.044,70.877 57.183,69.145 63.51,87.527    53.767,70.96 48.396,80.376 50.036,69.616 32.448,75.488 48.621,66.055 38.448,60.404 50.167,62.779 44.386,44.995 53.316,61.404    58.73,51.424  "/>
</g>
<g id="OSGeo" transform="translate(0.6663461,6.2143761)">
	<path fill="#4BA947" d="M105.382,52.167c-3.566,4.801-5.377,10.846-5.377,17.969c0,7.563,1.772,13.854,5.276,18.698   c3.521,4.875,8.465,7.349,14.698,7.349c6.825,0,12.143-2.34,15.812-6.949c3.649-4.596,5.503-11.021,5.503-19.098   c0-7.886-1.849-14.123-5.492-18.546c-3.653-4.443-8.977-6.696-15.823-6.696C113.882,44.893,108.975,47.343,105.382,52.167    M110.858,84.099c-2.177-3.713-3.281-8.412-3.281-13.963c0-5.771,1.076-10.388,3.192-13.719c2.096-3.295,5.197-4.966,9.214-4.966   c9.245,0,13.737,6.11,13.737,18.685c0,6.166-1.191,11.019-3.538,14.416c-2.325,3.365-5.758,5.07-10.199,5.07   C116.079,89.621,113.01,87.765,110.858,84.099"/>
	<path fill="#4BA947" d="M149.894,48.584c-2.643,2.452-3.98,5.586-3.98,9.312c0,3.048,0.684,5.703,2.033,7.879   c1.35,2.18,3.746,4.084,7.133,5.66l3.945,1.847c3.482,1.642,5.683,3.168,6.533,4.536c0.85,1.369,1.279,2.873,1.279,4.467   c0,2.123-0.768,3.895-2.286,5.262c-1.521,1.376-3.571,2.076-6.103,2.076c-1.435,0-3.084-0.303-4.91-0.909   c-1.825-0.6-3.366-1.358-4.583-2.257l-0.286-0.211l-2.647,6.689l0.18,0.119c3.111,2.075,6.912,3.129,11.299,3.129   c4.999,0,9.047-1.319,12.041-3.922c3.006-2.609,4.531-5.834,4.531-9.584c0-3.429-0.694-6.295-2.068-8.531   c-1.375-2.233-3.789-4.178-7.174-5.777l-4.021-1.91c-2.563-1.238-4.279-2.205-5.094-2.882c-0.803-0.661-1.439-1.497-1.888-2.481   c-0.452-0.99-0.681-2.104-0.681-3.311c0-1.949,0.635-3.567,1.885-4.805c1.25-1.24,3.004-1.867,5.205-1.867   c1.529,0,3.221,0.303,5.023,0.895c1.801,0.596,3.155,1.218,4.029,1.849l0.295,0.22l2.159-6.354l-0.142-0.119   c-2.168-1.795-6.043-2.708-11.521-2.708C155.96,44.893,152.529,46.135,149.894,48.584"/>
	<path fill="#4BA947" d="M185.271,52.067c-4.314,4.751-6.504,11.029-6.504,18.652c0,7.646,1.995,13.863,5.934,18.481   c3.949,4.63,9.402,6.979,16.213,6.979c3.016,0,6.171-0.477,9.371-1.403c3.212-0.933,5.754-2.188,7.56-3.724l0.099-0.078V69.205   h-14.014v6.22h6.778v11.114c-2.136,2.039-4.954,3.082-8.39,3.082c-4.91,0-8.836-1.713-11.68-5.099   c-2.853-3.396-4.296-7.95-4.296-13.532c0-5.875,1.472-10.656,4.379-14.208c2.896-3.539,6.901-5.332,11.916-5.332   c3.152,0,6.425,1.243,9.726,3.688l0.261,0.192l3.013-5.995l-0.16-0.138c-3.246-2.854-7.5-4.305-12.645-4.305   C195.502,44.893,189.591,47.309,185.271,52.067"/>
	<path fill="#4BA947" d="M229.144,63.144c-3.63,3.61-5.472,8.459-5.472,14.418c0,5.744,1.796,10.377,5.334,13.787   c3.185,3.092,7.104,4.66,11.661,4.66c3.143,0,6.027-0.48,8.593-1.435c2.052-0.729,3.606-1.61,4.612-2.627l0.146-0.147l-2.949-5.039   l-0.242,0.219c-2.367,2.091-5.366,3.152-8.918,3.152c-3.104,0-5.672-0.968-7.639-2.871c-2.18-2.142-3.293-5.246-3.343-9.209h25.761   l0.055-0.199c0.34-1.203,0.512-2.535,0.512-3.959c0-4.631-1.443-8.404-4.299-11.213c-2.939-2.92-7.049-4.402-12.207-4.402   C236.298,58.278,232.398,59.917,229.144,63.144 M234.103,66.828c1.854-1.771,4.188-2.67,6.933-2.67   c2.938,0,5.293,0.914,6.991,2.722c1.486,1.596,2.227,3.617,2.285,5.969h-19.154C231.449,70.481,232.406,68.438,234.103,66.828"/>
	<path fill="#4BA947" d="M266.257,63.476c-3.011,3.439-4.538,8.008-4.538,13.586c0,5.75,1.464,10.396,4.353,13.801   c2.896,3.415,6.986,5.146,12.16,5.146c5.061,0,9.113-1.714,12.059-5.097c2.933-3.373,4.418-8.03,4.418-13.853   c0-5.84-1.452-10.479-4.318-13.784c-2.877-3.316-6.965-4.998-12.156-4.998C273.306,58.278,269.275,60.027,266.257,63.476    M268.956,77.061c0-4.08,0.856-7.32,2.542-9.631c1.67-2.281,3.934-3.438,6.734-3.438c6.217,0,9.241,4.271,9.241,13.068   c0,4.103-0.834,7.377-2.481,9.735c-1.622,2.324-3.896,3.5-6.76,3.5C271.988,90.297,268.956,85.97,268.956,77.061"/>
</g>
<path fill="#A0CD67" d="M86.584,114.223l-0.869,4.748h-1.704l0.87-4.748l-2.346-8.445h1.779l1.172,4.459  c0.208,0.779,0.378,1.543,0.53,2.285h0.019c0.437-0.801,0.983-1.658,1.532-2.541l2.648-4.203h1.91L86.584,114.223 M93.375,119.149  c-2.366,0-3.444-1.229-3.444-3.459c0-3.871,2.382-6.607,5.448-6.607c2.479,0,3.499,1.445,3.499,3.498  C98.877,116.588,96.208,119.149,93.375,119.149 M95.113,110.569c-2.061,0-3.441,2.383-3.441,4.828c0,1.445,0.569,2.248,1.986,2.248  c1.834,0,3.443-2.035,3.443-4.869C97.101,111.348,96.476,110.569,95.113,110.569 M107.482,118.971h-1.663  c0.132-0.645,0.379-1.758,1.038-3.828h-0.035c-0.892,2.053-2.365,4.025-4.333,4.025c-1.739,0-2.345-1.271-1.966-3.303l1.21-6.607  h1.681l-1.151,6.215c-0.285,1.525-0.018,2.191,0.813,2.191c1.739,0,3.688-3.814,4.124-6.217l0.396-2.189h1.664L107.482,118.971   M116.581,110.784c-1.738-0.511-3.593,3.303-4.086,6.002l-0.396,2.186h-1.666l1.777-9.713h1.629  c-0.153,0.84-0.416,1.875-0.966,3.578l0.037,0.02c1.061-2.365,2.197-4.085,4.011-3.773L116.581,110.784 M125.945,119.169  c-3.084,0-4.56-1.798-4.56-4.81c0-4.771,3.139-8.775,7.301-8.775c2.968,0,4.594,1.758,4.594,4.809  C133.28,115.415,129.99,119.169,125.945,119.169 M128.403,107.165c-3.024,0-5.182,3.205-5.182,6.942c0,2.13,1.019,3.457,2.968,3.457  c2.894,0,5.259-3.067,5.259-6.979C131.448,108.497,130.466,107.165,128.403,107.165 M137.196,119.112  c-0.472,0-0.89-0.041-1.324-0.119l-0.871,4.81h-1.662l2.665-14.543h1.666c-0.169,0.84-0.416,1.799-1.06,3.892l0.04,0.02  c0.963-2.288,2.44-4.105,4.37-4.105c1.358,0,2.098,0.9,2.098,2.951C143.117,115.592,141.317,119.112,137.196,119.112   M140.43,110.569c-1.777,0-3.688,3.891-4.124,6.176l-0.15,0.744c0.397,0.135,0.965,0.232,1.363,0.232  c2.763,0,3.876-2.973,3.876-5.374C141.396,111.077,141.019,110.569,140.43,110.569 M146.219,114.69  c-0.057,0.297-0.095,0.783-0.095,1.135c0,1.506,0.511,1.896,2.024,1.896c0.888,0,1.835-0.216,2.647-0.564v1.408  c-0.908,0.369-2.006,0.584-3.234,0.584c-2.156,0-3.158-0.955-3.158-3.146c0-3.774,2.024-6.921,5.145-6.921  c2.005,0,2.761,1.057,2.761,2.209C152.309,113.383,150.246,114.534,146.219,114.69 M149.358,110.411  c-1.496,0-2.497,1.352-2.932,2.99c2.913-0.117,4.2-0.722,4.2-1.896C150.627,110.801,150.115,110.411,149.358,110.411   M160.856,118.971h-1.661l1.151-6.215c0.285-1.524,0.021-2.188-0.83-2.188c-1.741,0-3.671,3.81-4.104,6.217l-0.397,2.186h-1.663  l0.945-5.081c0.244-1.386,0.586-3.206,0.828-4.632h1.648c-0.115,0.646-0.378,1.758-1.041,3.832h0.039  c0.887-2.053,2.383-4.027,4.348-4.027c1.739,0,2.328,1.271,1.969,3.303L160.856,118.971 M175.533,107.383  c-0.623-0.234-1.303-0.314-1.776-0.314c-1.892,0-2.742,1.115-2.742,2.17c0,2.385,3.896,2.465,3.896,5.592  c0,2.442-2.082,4.34-5.047,4.34c-0.683,0-1.479-0.079-2.103-0.274l0.321-1.721c0.529,0.235,1.285,0.412,1.93,0.412  c1.967,0,3.083-0.998,3.083-2.464c0-2.286-3.877-2.307-3.877-5.473c0-2.17,1.646-4.065,4.709-4.065c0.644,0,1.211,0.038,1.93,0.192  L175.533,107.383 M180.037,119.149c-2.363,0-3.444-1.229-3.444-3.459c0-3.871,2.386-6.607,5.45-6.607  c2.479,0,3.498,1.445,3.498,3.498C185.541,116.588,182.875,119.149,180.037,119.149 M181.777,110.569  c-2.062,0-3.443,2.383-3.443,4.828c0,1.445,0.566,2.248,1.984,2.248c1.836,0,3.442-2.035,3.442-4.869  C183.761,111.348,183.139,110.569,181.777,110.569 M194.146,118.971h-1.664c0.134-0.645,0.38-1.758,1.04-3.828h-0.038  c-0.889,2.053-2.364,4.025-4.329,4.025c-1.744,0-2.349-1.271-1.969-3.303l1.209-6.607h1.684l-1.152,6.215  c-0.283,1.525-0.02,2.191,0.816,2.191c1.736,0,3.688-3.814,4.121-6.217l0.396-2.189h1.666L194.146,118.971 M203.225,110.784  c-1.738-0.511-3.593,3.303-4.088,6.002l-0.393,2.186h-1.668l1.778-9.713h1.627c-0.151,0.84-0.417,1.875-0.965,3.578l0.037,0.02  c1.06-2.365,2.194-4.085,4.011-3.773L203.225,110.784 M210.449,110.919c-0.512-0.235-1.058-0.372-1.723-0.372  c-2.382,0-3.497,2.775-3.497,4.986c0,1.014,0.319,2.053,1.968,2.053c0.735,0,1.529-0.178,2.118-0.469l-0.114,1.543  c-0.66,0.254-1.531,0.468-2.479,0.468c-2.438,0-3.271-1.366-3.271-3.204c0-3.714,2.024-6.822,5.39-6.822  c0.776,0,1.399,0.117,1.987,0.291L210.449,110.919 M213.115,114.69c-0.057,0.297-0.094,0.783-0.094,1.135  c0,1.506,0.51,1.896,2.026,1.896c0.884,0,1.831-0.216,2.646-0.564v1.408c-0.906,0.369-2.005,0.584-3.234,0.584  c-2.154,0-3.156-0.955-3.156-3.146c0-3.774,2.021-6.921,5.143-6.921c2.006,0,2.762,1.057,2.762,2.209  C219.207,113.383,217.145,114.534,213.115,114.69 M216.256,110.411c-1.494,0-2.496,1.352-2.932,2.99  c2.91-0.117,4.198-0.722,4.198-1.896C217.522,110.801,217.012,110.411,216.256,110.411 M234.47,107.694  c-0.89-0.332-1.778-0.469-2.649-0.469c-3.705,0-5.199,3.753-5.199,7.076c0,1.896,0.758,3.227,3.215,3.227  c1.06,0,2.099-0.234,2.97-0.646l-0.076,1.623c-1.019,0.391-2.212,0.624-3.401,0.624c-3.65,0-4.598-2.208-4.598-4.533  c0-4.614,2.514-8.936,7.337-8.936c1.078,0,1.986,0.158,2.818,0.395L234.47,107.694 M238.123,119.149  c-2.366,0-3.443-1.229-3.443-3.459c0-3.871,2.382-6.607,5.447-6.607c2.477,0,3.498,1.445,3.498,3.498  C243.625,116.588,240.961,119.149,238.123,119.149 M239.859,110.569c-2.061,0-3.439,2.383-3.439,4.828  c0,1.445,0.564,2.248,1.982,2.248c1.838,0,3.442-2.035,3.442-4.869C241.845,111.348,241.224,110.569,239.859,110.569   M257.942,118.971h-1.684l1.153-6.215c0.285-1.524,0.02-2.209-0.756-2.209c-1.608,0-3.574,3.599-4.066,6.238l-0.396,2.186h-1.664  l1.152-6.215c0.284-1.524,0.037-2.209-0.775-2.209c-1.589,0-3.556,3.599-4.048,6.238l-0.397,2.186H244.8l0.942-5.081  c0.267-1.446,0.588-3.206,0.832-4.632h1.646c-0.111,0.646-0.379,1.779-1.041,3.832h0.039c0.867-2.033,2.344-4.027,4.273-4.027  c1.211,0,1.893,0.684,1.893,1.895c0,0.606-0.152,1.175-0.454,2.15l0.037,0.021c0.87-2.091,2.346-4.064,4.274-4.064  c1.703,0,2.289,1.271,1.908,3.304L257.942,118.971 M263.75,119.112c-0.473,0-0.892-0.041-1.323-0.119l-0.872,4.81h-1.663  l2.668-14.543h1.661c-0.167,0.84-0.416,1.799-1.057,3.892l0.035,0.02c0.967-2.288,2.44-4.105,4.371-4.105  c1.36,0,2.098,0.9,2.098,2.951C269.668,115.592,267.873,119.112,263.75,119.112 M266.984,110.569c-1.779,0-3.689,3.891-4.126,6.176  l-0.151,0.744c0.397,0.135,0.968,0.232,1.363,0.232c2.764,0,3.879-2.973,3.879-5.374  C267.949,111.077,267.57,110.569,266.984,110.569 M278.01,118.971h-1.684c0.172-0.837,0.529-2.129,1.099-3.947l-0.039-0.017  c-0.681,1.503-2.101,4.162-4.386,4.162c-1.362,0-2.103-0.9-2.103-2.952c0-3.579,1.796-7.115,5.901-7.115  c1.076,0,2.078,0.117,2.951,0.295C278.748,114.831,278.406,116.647,278.01,118.971 M276.515,110.491  c-2.798,0-3.896,2.988-3.896,5.394c0,1.272,0.381,1.78,0.965,1.78c1.776,0,3.707-3.891,4.142-6.217l0.136-0.778  C277.48,110.569,277.047,110.491,276.515,110.491 M286.617,110.647c-0.457-0.156-0.945-0.236-1.416-0.236  c-1.232,0-1.877,0.605-1.877,1.429c0,1.545,2.855,1.952,2.855,4.146c0,1.62-1.379,3.166-4.047,3.166  c-0.624,0-1.137-0.037-1.607-0.139l0.303-1.563c0.492,0.154,1,0.254,1.531,0.254c1.229,0,2.061-0.508,2.061-1.524  c0-1.543-2.836-1.8-2.836-4.146c0-1.664,1.287-2.951,3.727-2.951c0.663,0,1.137,0.06,1.609,0.138L286.617,110.647 M293.729,110.647  c-0.456-0.156-0.945-0.236-1.421-0.236c-1.229,0-1.872,0.605-1.872,1.429c0,1.545,2.855,1.952,2.855,4.146  c0,1.62-1.379,3.166-4.045,3.166c-0.625,0-1.139-0.037-1.61-0.139l0.305-1.563c0.49,0.154,1.002,0.254,1.529,0.254  c1.229,0,2.063-0.508,2.063-1.524c0-1.543-2.84-1.8-2.84-4.146c0-1.664,1.288-2.951,3.727-2.951c0.664,0,1.136,0.06,1.607,0.138  L293.729,110.647"/>
</svg>